<?xml version="1.0" standalone="no"?>
<!DOCTYPE svg PUBLIC "-//W3C//DTD SVG 20010904//EN"
 "http://www.w3.org/TR/2001/REC-SVG-20010904/DTD/svg10.dtd">
<svg version="1.0" xmlns="http://www.w3.org/2000/svg"
 width="225.000000pt" height="225.000000pt" viewBox="0 0 225.000000 225.000000"
 preserveAspectRatio="xMidYMid meet">
<metadata>
Created by potrace 1.14, written by Peter Selinger 2001-2017
</metadata>
<g transform="translate(0.000000,225.000000) scale(0.100000,-0.100000)"
fill="#000000" stroke="none">
<path d="M840 2025 c-243 -54 -389 -185 -470 -425 -17 -48 -23 -93 -26 -175
-4 -159 17 -250 94 -415 71 -152 182 -276 294 -328 l60 -27 -5 -41 c-6 -57
-50 -117 -126 -171 -115 -83 -183 -168 -196 -248 l-7 -40 32 38 c47 55 101 79
191 85 110 6 221 -29 310 -99 46 -36 64 -24 42 28 -18 44 -13 59 24 66 64 13
141 94 126 134 -4 11 -11 9 -33 -12 -15 -15 -44 -28 -66 -32 l-39 -5 28 26
c15 15 34 37 42 50 21 32 27 124 11 185 -12 45 -11 55 6 92 18 42 23 80 12 92
-12 12 -42 -12 -46 -38 -5 -22 -3 -23 10 -13 13 11 14 10 4 -9 -17 -31 -94
-65 -150 -65 -140 -1 -274 60 -373 171 -63 71 -151 247 -180 361 -61 245 -22
437 123 595 122 133 248 190 418 188 155 -1 292 -47 368 -123 54 -54 72 -98
77 -178 11 -206 -134 -396 -315 -414 l-35 -3 1 125 c1 149 7 187 37 221 32 37
59 49 115 49 52 0 109 -29 144 -73 10 -12 18 -20 19 -17 0 3 2 14 5 25 10 49
6 118 -7 126 -51 32 -288 -1 -340 -47 -14 -12 -18 -12 -32 3 -19 22 -36 66
-46 118 l-7 40 -29 -63 c-35 -78 -53 -89 -97 -62 -62 38 -139 20 -196 -45 -42
-47 -54 -77 -54 -141 -1 -60 34 -143 82 -192 64 -66 183 -108 320 -111 170 -4
344 82 417 206 32 55 44 43 42 -42 -5 -141 -82 -264 -189 -300 -44 -14 -61
-18 -147 -30 -48 -7 -46 -11 -44 81 l1 62 -58 -2 c-31 -1 -85 3 -119 10 -35 6
-63 8 -64 5 0 -3 -1 -114 -2 -246 l-2 -240 40 -14 c40 -14 178 -21 189 -10 3
3 6 69 7 147 2 157 -1 152 68 127 99 -35 156 -116 176 -250 4 -22 8 -51 11
-65 8 -47 5 -225 -5 -278 -6 -29 -21 -75 -34 -102 l-24 -50 32 0 c18 0 49 11
69 25 20 14 41 25 46 25 5 0 27 -18 49 -40 112 -113 255 -81 282 64 9 51 4 61
-21 36 -21 -21 -49 -22 -73 -1 -21 16 -34 91 -41 221 -3 58 -7 116 -10 130
-12 78 -19 100 -44 150 -33 66 -111 126 -178 136 -24 3 -41 10 -39 15 3 4 11
6 18 4 7 -2 29 -6 49 -8 102 -12 198 -105 224 -217 13 -58 14 -64 16 -98 1
-37 7 -36 14 2 8 44 22 73 54 109 40 46 78 58 168 53 39 -2 84 -1 98 2 37 7
50 42 34 91 -11 36 -11 41 11 71 23 30 23 32 6 45 -15 11 -16 17 -8 33 8 16 7
24 -4 36 -17 17 -20 43 -5 48 6 2 12 13 15 26 3 18 -3 27 -28 40 -56 30 -85
66 -101 128 -35 130 -97 213 -208 280 -59 36 -85 40 -54 8 23 -23 62 -101 76
-154 13 -48 15 -179 3 -191 -5 -4 -8 33 -8 84 0 77 -4 100 -24 140 -31 63 -83
118 -151 159 -31 19 -57 42 -58 53 -5 25 -46 104 -69 131 -26 32 -110 93 -152
110 -115 50 -255 64 -371 39z m-88 -390 c30 -12 38 -55 43 -218 4 -128 4 -128
-18 -121 -57 17 -122 73 -155 133 -20 35 -27 125 -12 161 21 52 80 70 142 45z
m338 -997 c1 -7 3 -30 6 -50 7 -47 -18 -101 -54 -118 -22 -10 -169 -16 -178
-7 -2 1 27 23 64 47 49 33 73 57 87 87 18 37 28 44 68 52 4 0 7 -5 7 -11z"/>
</g>
</svg>
